<?xml version="1.0" encoding="UTF-8"?>
<svg xmlns="http://www.w3.org/2000/svg" xmlns:xlink="http://www.w3.org/1999/xlink" width="310px" height="131px" viewBox="0 0 308 131" version="1.1">
<defs>
<clipPath id="clip1">
  <path d="M 0 0 L 308 0 L 308 130.652344 L 0 130.652344 Z M 0 0 "/>
</clipPath>
</defs>
<g id="surface1">
<g clip-path="url(#clip1)" clip-rule="nonzero">
<path style=" stroke:none;fill-rule:evenodd;fill:rgb(12.941177%,11.764706%,11.764706%);fill-opacity:1;" d="M 156.050781 70.808594 L 181.96875 15.101562 L 195.765625 15.101562 L 202.800781 -0.00390625 L 276.234375 -0.00390625 L 269.140625 15.246094 L 308.199219 15.246094 L 254.503906 130.652344 L 209.042969 130.652344 C 166.726562 130.652344 149.535156 122.652344 134.367188 110.199219 C 115.058594 94.339844 104.070312 79.691406 87.207031 79.414062 L 63.371094 130.652344 L 0 130.652344 L 53.433594 15.796875 L 54.859375 15.703125 C 80.984375 13.941406 103.9375 18.921875 123.703125 36.675781 C 128.871094 41.3125 133.589844 46.464844 137.929688 51.886719 C 141.90625 56.867188 146.046875 62.128906 150.660156 66.539062 C 152.292969 68.097656 154.117188 69.519531 156.050781 70.808594 "/>
</g>
<path style=" stroke:none;fill-rule:evenodd;fill:rgb(93.333334%,22.745098%,12.941177%);fill-opacity:1;" d="M 158.195312 72.210938 C 159.609375 72.957031 161.097656 73.542969 162.648438 73.910156 C 163.824219 74.179688 165.019531 74.320312 166.226562 74.320312 C 173.167969 74.320312 177.4375 69.097656 180.121094 63.324219 L 201.523438 17.179688 L 183.796875 17.179688 L 158.195312 72.210938 "/>
<path style=" stroke:none;fill-rule:evenodd;fill:rgb(100%,100%,100%);fill-opacity:1;" d="M 268.621094 2.601562 L 204.1875 2.601562 L 198.367188 15.101562 L 205.21875 15.101562 L 182.308594 64.339844 C 179.453125 70.484375 174.546875 76.738281 166.226562 76.738281 C 154.964844 76.738281 146.457031 66.417969 136.039062 53.398438 C 132.183594 48.574219 127.511719 43.34375 122.089844 38.476562 C 109.015625 26.726562 89.582031 15.648438 55.015625 17.980469 L 4.839844 125.828125 L 60.363281 125.828125 L 86.269531 70.136719 C 106.703125 70.136719 121.980469 93.378906 147.171875 112.46875 C 164.804688 125.828125 183.910156 127.582031 210.472656 127.582031 L 268.621094 2.601562 "/>
</g>
</svg>
