<?xml version="1.0" encoding="UTF-8"?>
<svg xmlns="http://www.w3.org/2000/svg" xmlns:xlink="http://www.w3.org/1999/xlink" width="310px" height="64px" viewBox="0 0 310 64" version="1.1">
<defs>
<clipPath id="clip1">
  <path d="M 0 0 L 151 0 L 151 63.910156 L 0 63.910156 Z M 0 0 "/>
</clipPath>
<clipPath id="clip2">
  <path d="M 128 7.15625 L 310 7.15625 L 310 63.910156 L 128 63.910156 Z M 128 7.15625 "/>
</clipPath>
</defs>
<g id="surface1">
<g clip-path="url(#clip1)" clip-rule="nonzero">
<path style=" stroke:none;fill-rule:evenodd;fill:rgb(13.725491%,12.156863%,12.54902%);fill-opacity:1;" d="M 76.347656 34.636719 L 89.027344 7.386719 L 95.78125 7.386719 L 99.21875 -0.00390625 L 135.148438 -0.00390625 L 131.675781 7.457031 L 150.785156 7.457031 L 124.515625 63.910156 L 102.273438 63.910156 C 81.570312 63.910156 73.160156 59.996094 65.738281 53.90625 C 56.292969 46.148438 50.917969 38.980469 42.667969 38.847656 L 31.003906 63.910156 L 0 63.910156 L 26.144531 7.726562 L 26.839844 7.679688 C 39.621094 6.820312 50.851562 9.253906 60.519531 17.941406 C 63.050781 20.207031 65.359375 22.726562 67.480469 25.378906 C 69.429688 27.816406 71.453125 30.390625 73.710938 32.546875 C 74.507812 33.3125 75.402344 34.007812 76.347656 34.636719 "/>
</g>
<path style=" stroke:none;fill-rule:evenodd;fill:rgb(93.725491%,23.137255%,13.725491%);fill-opacity:1;" d="M 77.398438 35.324219 C 78.085938 35.691406 78.816406 35.972656 79.574219 36.152344 C 80.152344 36.285156 80.738281 36.355469 81.328125 36.355469 C 84.722656 36.355469 86.8125 33.800781 88.125 30.976562 L 98.597656 8.40625 L 89.921875 8.40625 L 77.398438 35.324219 "/>
<path style=" stroke:none;fill-rule:evenodd;fill:rgb(100%,100%,100%);fill-opacity:1;" d="M 131.421875 1.273438 L 99.898438 1.273438 L 97.050781 7.386719 L 100.40625 7.386719 L 89.195312 31.472656 C 87.796875 34.480469 85.398438 37.539062 81.328125 37.539062 C 75.816406 37.539062 71.65625 32.488281 66.558594 26.121094 C 64.671875 23.761719 62.386719 21.203125 59.734375 18.820312 C 53.335938 13.074219 43.828125 7.65625 26.917969 8.796875 L 2.367188 61.550781 L 29.53125 61.550781 L 42.207031 34.308594 C 52.207031 34.308594 59.679688 45.679688 72.003906 55.015625 C 80.628906 61.550781 89.980469 62.410156 102.972656 62.410156 L 131.421875 1.273438 "/>
<g clip-path="url(#clip2)" clip-rule="nonzero">
<path style=" stroke:none;fill-rule:evenodd;fill:rgb(13.725491%,12.156863%,12.54902%);fill-opacity:1;" d="M 154.542969 7.457031 L 310.136719 7.457031 L 295.160156 39.648438 C 288.0625 54.902344 268.707031 63.910156 251.917969 63.910156 L 128.273438 63.910156 L 154.542969 7.457031 "/>
</g>
<path style=" stroke:none;fill-rule:nonzero;fill:rgb(100%,100%,100%);fill-opacity:1;" d="M 244.527344 37.25 L 255.6875 37.25 C 255.960938 37.25 256.222656 37.195312 256.472656 37.078125 C 256.722656 36.964844 256.890625 36.8125 256.976562 36.625 L 257.589844 35.316406 C 257.964844 34.503906 257.738281 33.851562 256.910156 33.363281 C 256.078125 32.875 254.648438 32.628906 252.609375 32.628906 C 250.808594 32.628906 249.257812 32.875 247.953125 33.363281 C 246.648438 33.851562 245.808594 34.503906 245.429688 35.316406 Z M 259.207031 43.945312 C 258.308594 45.867188 258.535156 46.855469 256.222656 47.183594 C 255.636719 47.265625 254.414062 47.308594 253.476562 47.308594 L 244.488281 47.308594 C 241.003906 47.308594 238.457031 46.808594 236.84375 45.808594 C 235.234375 44.808594 234.832031 43.445312 235.636719 41.71875 L 238.339844 35.910156 C 238.855469 34.804688 239.636719 33.855469 240.691406 33.066406 C 241.742188 32.273438 242.964844 31.628906 244.351562 31.128906 C 245.738281 30.628906 247.261719 30.265625 248.914062 30.035156 C 250.59375 29.804688 252.285156 29.691406 253.976562 29.691406 C 255.855469 29.691406 257.53125 29.816406 259 30.066406 C 260.472656 30.316406 261.671875 30.675781 262.609375 31.144531 C 263.546875 31.613281 264.175781 32.203125 264.492188 32.910156 C 264.804688 33.617188 264.757812 34.421875 264.339844 35.316406 L 263.292969 37.5625 C 262.945312 38.3125 262.242188 38.9375 261.1875 39.4375 C 260.132812 39.9375 258.726562 40.1875 256.964844 40.1875 L 243.164062 40.1875 L 242.449219 41.71875 C 241.75 43.222656 242.707031 43.945312 244.207031 43.945312 Z M 222.070312 30.128906 C 224.144531 30.128906 225.851562 30.230469 227.1875 30.425781 C 228.523438 30.625 229.53125 30.941406 230.210938 31.378906 C 230.886719 31.816406 231.25 32.382812 231.296875 33.082031 C 231.34375 33.78125 231.140625 34.617188 230.683594 35.597656 L 225.234375 47.308594 L 222.121094 47.308594 C 220.828125 47.308594 219.957031 47.167969 219.5 46.886719 C 219.042969 46.605469 218.984375 46.101562 219.324219 45.371094 L 223.871094 35.597656 C 224.335938 34.597656 224.335938 33.921875 223.875 33.5625 C 223.414062 33.210938 222.363281 33.035156 220.71875 33.035156 L 213.375 33.035156 L 206.734375 47.308594 L 203.738281 47.308594 C 202.367188 47.308594 201.457031 47.167969 201 46.886719 C 200.542969 46.605469 200.484375 46.101562 200.824219 45.371094 L 207.914062 30.128906 Z M 194.484375 23.570312 L 201.53125 23.570312 L 199.582031 27.757812 L 197 27.757812 C 195.785156 27.757812 194.824219 27.574219 194.113281 27.210938 C 193.398438 26.84375 193.203125 26.320312 193.523438 25.632812 Z M 198.363281 30.128906 L 190.367188 47.308594 L 187.316406 47.308594 C 185.945312 47.308594 185.039062 47.167969 184.601562 46.886719 C 184.164062 46.605469 184.117188 46.101562 184.457031 45.371094 L 191.550781 30.128906 Z M 159.332031 43.976562 L 179.242188 43.976562 C 178.476562 46.589844 177.691406 47.308594 174.570312 47.308594 L 150.910156 47.308594 L 161.753906 24.007812 L 168.625 24.007812 L 159.332031 43.976562 "/>
</g>
</svg>
