<svg xmlns="http://www.w3.org/2000/svg" width="477.81pt" height="98.26pt" viewBox="0 0 477.81 98.26"><defs><clipPath id="a"><path d="M0 0h233v98.262H0Zm0 0"/></clipPath><clipPath id="b"><path d="M197 11h280.809v87.262H197Zm0 0"/></clipPath></defs><g clip-path="url(#a)"><path d="m117.625 53.254 19.535-41.895h10.403l5.3-11.363h55.352l-5.348 11.469h29.442l-40.473 86.797H157.57c-31.898 0-44.855-6.016-56.289-15.383-14.554-11.926-22.836-22.945-35.547-23.152L47.766 98.262H0l40.277-86.38 1.075-.073c19.691-1.325 36.992 2.421 51.89 15.773 3.895 3.488 7.453 7.363 10.723 11.441 3 3.747 6.12 7.704 9.597 11.02 1.231 1.172 2.606 2.242 4.063 3.21" style="stroke:none;fill-rule:evenodd;fill:#231f20;fill-opacity:1"/></g><path d="M119.242 54.309a14.087 14.087 0 0 0 3.356 1.277c.886.203 1.789.309 2.699.309 5.23 0 8.45-3.926 10.473-8.27l16.132-34.703H138.54l-19.297 41.387" style="stroke:none;fill-rule:evenodd;fill:#ef3b23;fill-opacity:1"/><path d="M202.477 1.957H153.91l-4.387 9.402h5.165l-17.27 37.032c-2.152 4.62-5.852 9.324-12.121 9.324-8.488 0-14.902-7.762-22.754-17.555-2.906-3.629-6.43-7.562-10.516-11.222-9.855-8.836-24.504-17.168-50.558-15.415l-37.82 81.11H45.5L65.027 52.75c15.403 0 26.918 17.48 45.907 31.836 13.289 10.047 27.691 11.367 47.71 11.367l43.833-93.996" style="stroke:none;fill-rule:evenodd;fill:#fff;fill-opacity:1"/><g clip-path="url(#b)"><path d="M238.098 11.465h239.714L454.735 60.96c-10.933 23.45-40.75 37.3-66.62 37.3H197.624l40.473-86.796" style="stroke:none;fill-rule:evenodd;fill:#231f20;fill-opacity:1"/></g><path d="M376.73 57.273h17.196c.418 0 .824-.086 1.207-.265.383-.176.644-.406.777-.696l.942-2.015c.582-1.25.234-2.25-1.043-3-1.282-.754-3.489-1.129-6.625-1.129-2.774 0-5.168.375-7.176 1.129-2.008.75-3.305 1.75-3.887 3Zm22.614 10.293c-1.38 2.957-1.035 4.477-4.594 4.977-.902.129-2.79.191-4.234.191h-13.844c-5.371 0-9.297-.765-11.777-2.304-2.48-1.535-3.102-3.633-1.86-6.29l4.164-8.93c.79-1.698 1.996-3.155 3.621-4.37 1.621-1.219 3.504-2.211 5.64-2.977 2.138-.77 4.481-1.332 7.028-1.683a57.002 57.002 0 0 1 7.801-.528c2.895 0 5.477.192 7.738.578 2.266.383 4.118.934 5.563 1.657 1.445.718 2.41 1.625 2.898 2.71.485 1.09.41 2.325-.234 3.7l-1.61 3.457c-.539 1.152-1.62 2.113-3.246 2.883-1.625.765-3.793 1.152-6.507 1.152h-21.262l-1.098 2.352c-1.082 2.316.395 3.425 2.707 3.425Zm-57.215-21.242c3.2 0 5.828.153 7.887.457 2.058.305 3.613.793 4.656 1.465 1.043.672 1.601 1.543 1.676 2.617.07 1.075-.243 2.36-.946 3.867l-8.394 18.004h-4.797c-1.992 0-3.336-.214-4.04-.644-.702-.434-.796-1.211-.273-2.332l7.008-15.028c.719-1.539.719-2.578.008-3.125-.71-.542-2.332-.812-4.867-.812h-11.309l-10.234 21.941h-4.613c-2.114 0-3.52-.214-4.223-.644-.703-.434-.793-1.211-.27-2.332l10.926-23.434Zm-42.496-10.082h10.855l-3 6.434h-3.98c-1.871 0-3.356-.281-4.45-.84-1.097-.563-1.398-1.371-.906-2.426Zm5.972 10.082-12.316 26.41h-4.703c-2.113 0-3.504-.214-4.18-.644-.672-.434-.746-1.211-.222-2.332l10.925-23.434Zm-60.128 21.29h30.671c-1.18 4.019-2.386 5.12-7.199 5.12H232.5l16.707-35.82h10.586l-14.316 30.7" style="stroke:none;fill-rule:nonzero;fill:#fff;fill-opacity:1"/></svg>